# File created by Blade
# Date/Time:  Wed Apr 08 17:00:17 2015
# Frame Rate: 120.000 fps
#------------------------------------------------------
:FULLY-SPECIFIED
:DEGREES
2004
root 1.185341 35.662275 2.822220 -25.859071 -77.321824 13.458694
Spine 9.533458 4.044118 -9.198419
Head 3.941478 8.730946 1.059817
LeftShoulder 7.036154 -0.969073 26.469720
LeftArm 98.733895 44.478818 -31.145561
LeftForeArm -48.640288 -0.000000 91.600868
LeftHand -24.294722 -0.000000 16.501280
LeftHandThumb1 -26.253704 0.000000 33.147579
RightShoulder 1.282667 -34.766018 -20.373704
RightArm 89.793339 18.474755 17.069838
RightForeArm -1.454899 -0.000000 89.918025
RightHand 0.361406 0.000000 33.178574
RightHandThumb1 -24.326973 -0.000000 -32.862282
LeftUpLeg 13.643509 5.886667 5.452564
LeftLeg 11.934126 -0.000000 -0.000000
LeftFoot -13.935737 -3.506760 -11.781661
LeftToeBase 10.214852 -0.000000 -0.000000
RightUpLeg 24.257147 -19.009567 -18.288673
RightLeg 1.388576 -0.000000 -0.000000
RightFoot -11.906650 5.724705 20.799186
RightToeBase 14.756785 -0.000000 -0.000000
2005
root 1.189021 35.661482 2.824167 -25.813774 -77.255662 13.417476
Spine 9.570785 4.079132 -9.224651
Head 3.970876 8.668549 1.098492
LeftShoulder 7.017213 -0.889268 26.450942
LeftArm 98.793122 44.459989 -31.019332
LeftForeArm -48.555975 0.000000 91.684815
LeftHand -24.248224 0.000000 16.631416
LeftHandThumb1 -26.253704 0.000000 33.147579
RightShoulder 1.160361 -34.841037 -20.293758
RightArm 90.139258 18.667151 17.997095
RightForeArm -1.426581 0.000000 91.491195
RightHand 0.261827 -0.000000 33.143420
RightHandThumb1 -24.326973 -0.000000 -32.862282
LeftUpLeg 13.606324 5.828618 5.423134
LeftLeg 11.962159 -0.000000 -0.000000
LeftFoot -13.951181 -3.495954 -11.745832
LeftToeBase 10.232008 -0.000000 -0.000000
RightUpLeg 24.279841 -19.070636 -18.323224
RightLeg 1.382505 -0.000000 -0.000000
RightFoot -11.900161 5.736681 20.796928
RightToeBase 14.734044 -0.000000 -0.000000
2006
root 1.192564 35.660880 2.826260 -25.790899 -77.202498 13.401856
Spine 9.597349 4.109499 -9.249040
Head 4.013376 8.638120 1.121929
LeftShoulder 7.004728 -0.871509 26.453191
LeftArm 98.765853 44.486290 -30.998422
LeftForeArm -48.439147 0.000000 91.770642
LeftHand -24.292599 -0.000000 16.732952
LeftHandThumb1 -26.253704 0.000000 33.147579
RightShoulder 1.062957 -34.838325 -20.255251
RightArm 90.423493 18.792472 18.991233
RightForeArm -1.618763 -0.000000 93.052827
RightHand 0.321790 -0.000000 33.573362
RightHandThumb1 -24.326973 -0.000000 -32.862282
LeftUpLeg 13.576806 5.774517 5.392303
LeftLeg 11.973310 -0.000000 -0.000000
LeftFoot -13.954536 -3.483392 -11.738575
LeftToeBase 10.253503 -0.000000 -0.000000
RightUpLeg 24.298347 -19.114215 -18.346992
RightLeg 1.361550 -0.000000 -0.000000
RightFoot -11.896768 5.726126 20.793226
RightToeBase 14.721583 -0.000000 -0.000000
2007
root 1.196194 35.660498 2.829098 -25.753171 -77.153750 13.365856
Spine 9.627076 4.137081 -9.261161
Head 4.065230 8.587965 1.144792
LeftShoulder 6.992577 -0.835294 26.429956
LeftArm 98.745624 44.515100 -30.986613
LeftForeArm -48.293847 0.000000 91.838909
LeftHand -24.306073 -0.000000 16.808701
LeftHandThumb1 -26.253704 0.000000 33.147579
RightShoulder 0.972518 -34.861744 -20.218869
RightArm 90.767412 18.948906 20.004817
RightForeArm -1.679448 -0.000000 94.518634
RightHand 0.269404 0.000000 33.559734
RightHandThumb1 -24.326973 -0.000000 -32.862282
LeftUpLeg 13.548300 5.728648 5.367906
LeftLeg 11.993835 -0.000000 -0.000000
LeftFoot -13.962614 -3.467515 -11.729974
LeftToeBase 10.230722 -0.000000 -0.000000
RightUpLeg 24.318571 -19.162512 -18.373556
RightLeg 1.348970 -0.000000 -0.000000
RightFoot -11.894550 5.723580 20.791132
RightToeBase 14.760485 -0.000000 -0.000000
2008
root 1.200370 35.659829 2.831373 -25.726543 -77.100810 13.350155
Spine 9.645040 4.158325 -9.278844
Head 4.131900 8.531626 1.155164
LeftShoulder 6.997948 -0.816143 26.385579
LeftArm 98.609415 44.610801 -31.061007
LeftForeArm -47.944132 -0.000000 91.982830
LeftHand -24.399392 0.000000 16.908845
LeftHandThumb1 -26.253704 0.000000 33.147579
RightShoulder 0.911295 -34.839774 -20.218757
RightArm 91.089540 19.045709 21.053226
RightForeArm -1.817150 -0.000000 95.910266
RightHand 0.251375 -0.000000 33.478729
RightHandThumb1 -24.326973 -0.000000 -32.862282
LeftUpLeg 13.504061 5.675416 5.337956
LeftLeg 12.025941 -0.000000 -0.000000
LeftFoot -13.970935 -3.459930 -11.707765
LeftToeBase 10.254240 -0.000000 -0.000000
RightUpLeg 24.335633 -19.201959 -18.395718
RightLeg 1.322744 -0.000000 -0.000000
RightFoot -11.888846 5.724434 20.808984
RightToeBase 14.747072 -0.000000 -0.000000
2009
root 1.204908 35.659964 2.834612 -25.707840 -77.057332 13.341641
Spine 9.656898 4.190233 -9.299140
Head 4.202389 8.472626 1.214849
LeftShoulder 6.919194 -0.742851 26.395063
LeftArm 98.814471 44.469172 -30.885069
LeftForeArm -47.977733 -0.000000 91.839642
LeftHand -24.144359 0.000000 16.353467
LeftHandThumb1 -26.253704 0.000000 33.147579
RightShoulder 0.821435 -34.859634 -20.184189
RightArm 91.457156 19.194325 22.103697
RightForeArm -1.979131 -0.000000 97.203892
RightHand 0.210221 -0.000000 33.425398
RightHandThumb1 -24.326973 -0.000000 -32.862282
LeftUpLeg 13.468854 5.660003 5.317889
LeftLeg 12.046305 -0.000000 -0.000000
LeftFoot -13.969431 -3.476826 -11.701226
LeftToeBase 10.260221 -0.000000 -0.000000
RightUpLeg 24.344325 -19.245244 -18.420754
RightLeg 1.308053 -0.000000 -0.000000
RightFoot -11.887425 5.717472 20.818282
RightToeBase 14.794558 -0.000000 -0.000000
2010
root 1.209190 35.659314 2.837261 -25.715788 -77.018981 13.359086
Spine 9.664252 4.211814 -9.311464
Head 4.289366 8.412215 1.221683
LeftShoulder 6.921596 -0.723537 26.314527
LeftArm 98.888471 44.299599 -30.819697
LeftForeArm -48.153426 -0.000000 91.734403
LeftHand -24.533792 -0.000000 16.344158
LeftHandThumb1 -26.253704 0.000000 33.147579
RightShoulder 0.754120 -34.861976 -20.203087
RightArm 91.822882 19.357816 23.134024
RightForeArm -2.050237 -0.000000 98.397619
RightHand 0.092172 -0.000000 33.070616
RightHandThumb1 -24.326973 -0.000000 -32.862282
LeftUpLeg 13.438121 5.648763 5.297122
LeftLeg 12.063637 -0.000000 -0.000000
LeftFoot -13.964946 -3.505484 -11.701422
LeftToeBase 10.253546 -0.000000 -0.000000
RightUpLeg 24.349692 -19.246675 -18.430458
RightLeg 1.285674 -0.000000 -0.000000
RightFoot -11.897602 5.688622 20.837359
RightToeBase 14.798882 -0.000000 -0.000000
